<?xml version="1.0" standalone="no"?>
<!DOCTYPE svg PUBLIC "-//W3C//DTD SVG 1.1//EN" "http://www.w3.org/Graphics/SVG/1.1/DTD/svg11.dtd" >
<svg>
<metadata>
Created by FontForge 20090622 at Fri Jan 17 15:21:41 2020
 By deploy user
Andrey Karter
</metadata>
<defs>
<font id="Miratrix-Normal" horiz-adv-x="600" >
  <font-face 
    font-family="Miratrix Normal"
    font-weight="400"
    font-stretch="normal"
    units-per-em="1000"
    panose-1="0 0 5 0 0 0 0 0 0 0"
    ascent="800"
    descent="-200"
    x-height="700"
    cap-height="700"
    bbox="9 -161 1049 901"
    underline-thickness="50"
    underline-position="-50"
    unicode-range="U+0020-U+25CA"
  />
<missing-glyph 
 />
    <glyph glyph-name=".notdef" 
 />
    <glyph glyph-name=".null" horiz-adv-x="0" 
 />
    <glyph glyph-name="nonmarkingreturn" horiz-adv-x="333" 
 />
    <glyph glyph-name="space" unicode=" " horiz-adv-x="330" 
 />
    <glyph glyph-name="exclam" unicode="!" horiz-adv-x="133" 
d="M116 700v-571h-100v571h100zM123 22q0 24 -16 41t-40 17q-23 0 -40 -17t-17 -41q0 -23 17 -39.5t40 -16.5q24 0 40 16.5t16 39.5z" />
    <glyph glyph-name="quotedbl" unicode="&#x22;" horiz-adv-x="292" 
d="M10 498h81l54 202h-81zM152 498h81l54 202h-81z" />
    <glyph glyph-name="numbersign" unicode="#" horiz-adv-x="701" 
d="M431 0l56 203h123l26 96h-122l35 127h116l26 96h-116l49 176h-101l-49 -176h-154l49 176h-101l-49 -176h-128l-26 -96h128l-35 -127h-121l-27 -96h121l-56 -203h101l56 203h154l-56 -203h101zM294 426h154l-35 -127h-154z" />
    <glyph glyph-name="dollar" unicode="$" 
 />
    <glyph glyph-name="percent" unicode="%" 
 />
    <glyph glyph-name="ampersand" unicode="&#x26;" horiz-adv-x="597" 
d="M587 164q-21 -100 -101 -165.5t-184 -65.5q-121 0 -206.5 85t-85.5 206q0 81 41 149.5t110 105.5l-61 221h477v-100h-345l25 -88q22 3 45 3q83 0 152.5 -43t105.5 -114l-102 -15q-8 12 -18 20q-57 57 -138 57h-19l104 -373q31 15 53 38q30 30 43 64zM105 224
q0 -81 58 -139q51 -52 124 -57l-99 356q-12 -8 -25 -21q-58 -58 -58 -139z" />
    <glyph glyph-name="quotesingle" unicode="'" horiz-adv-x="155" 
d="M10 498h81l54 202h-81z" />
    <glyph glyph-name="parenleft" unicode="(" horiz-adv-x="384" 
d="M374 -161q-160 52 -262 192.5t-102 317.5t102 317.5t262 192.5v-123h-2q-74 -34 -130 -90q-58 -61 -87 -134q-33 -76 -33 -163t33 -163q29 -73 87 -134q56 -56 130 -90h2v-123z" />
    <glyph glyph-name="parenright" unicode=")" horiz-adv-x="384" 
d="M10 -161q160 52 262 192.5t102 317.5t-102 317.5t-262 192.5v-123h1q75 -34 130 -90q58 -60 88 -134q32 -74 32 -163t-32 -163q-30 -74 -88 -134q-55 -56 -130 -90h-1v-123z" />
    <glyph glyph-name="asterisk" unicode="*" horiz-adv-x="438" 
d="M387 434l-131 78l4 -152h-82l3 153l-130 -79l-41 71l134 74l-134 74l42 70l129 -79l-3 153h82l-4 -154l132 80l40 -71l-133 -74l133 -74z" />
    <glyph glyph-name="plus" unicode="+" 
d="M556 300h-208v-208h-100v208h-209v100h209v209h100v-209h208v-100z" />
    <glyph glyph-name="comma" unicode="," horiz-adv-x="150" 
d="M10 -137h76l54 202h-76z" />
    <glyph glyph-name="hyphen" unicode="-" horiz-adv-x="361" 
d="M351 300h-341v100h341v-100z" />
    <glyph glyph-name="period" unicode="." horiz-adv-x="153" 
d="M133 22q0 24 -16 41t-40 17q-23 0 -40 -17t-17 -41q0 -23 17 -39.5t40 -16.5q24 0 40 16.5t16 39.5z" />
    <glyph glyph-name="slash" unicode="/" horiz-adv-x="425" 
d="M280 800l-240 -878h105l240 878h-105z" />
    <glyph glyph-name="zero" unicode="0" horiz-adv-x="840" 
d="M809 351q0 -155 -109.5 -264.5t-264.5 -109.5t-264.5 109.5t-109.5 264.5t109.5 264.5t264.5 109.5t264.5 -109.5t109.5 -264.5zM166 351q0 -112 79 -189q79 -79 190 -79t190 79q78 76 78 189q0 114 -78 190q-79 79 -190 79t-190 -79q-79 -77 -79 -190z" />
    <glyph glyph-name="one" unicode="1" horiz-adv-x="258" 
d="M243 700v-700h-102v598h-126v102h228z" />
    <glyph glyph-name="two" unicode="2" horiz-adv-x="732" 
d="M60 0h612v102h-498v186h498v412h-612v-102h499v-208h-499v-390z" />
    <glyph glyph-name="three" unicode="3" 
d="M425 299h-335v103h335v195h-335v103h438v-700h-438v103h335v196z" />
    <glyph glyph-name="four" unicode="4" horiz-adv-x="560" 
d="M397 700h103v-700h-103v248h-337v452h103v-350h234v350z" />
    <glyph glyph-name="five" unicode="5" horiz-adv-x="732" 
d="M558 310v-208h-498v-102h612v412h-498v186h498v102h-612v-390h498z" />
    <glyph glyph-name="six" unicode="6" horiz-adv-x="732" 
d="M173 412h499v-412h-612v700h612v-102h-499v-186zM173 310v-208h385v208h-385z" />
    <glyph glyph-name="seven" unicode="7" horiz-adv-x="693" 
d="M653 700l-1 -102l-372 -598h-135l373 598h-477v102h612z" />
    <glyph glyph-name="eight" unicode="8" horiz-adv-x="732" 
d="M672 700v-700h-612v700h612zM558 598h-385v-186h385v186zM558 310h-385v-208h385v208z" />
    <glyph glyph-name="nine" unicode="9" horiz-adv-x="732" 
d="M559 288h-499v412h612v-700h-612v102h499v186zM559 390v208h-385v-208h385z" />
    <glyph glyph-name="colon" unicode=":" horiz-adv-x="133" 
d="M123 490q0 24 -16 41t-40 17q-23 0 -40 -17t-17 -41q0 -23 17 -39.5t40 -16.5q24 0 40 16.5t16 39.5zM123 182q0 24 -16 41t-40 17q-23 0 -40 -17t-17 -41q0 -23 17 -39.5t40 -16.5q24 0 40 16.5t16 39.5z" />
    <glyph glyph-name="semicolon" unicode=";" horiz-adv-x="168" 
d="M158 392q0 24 -16 41t-40 17q-23 0 -40 -17t-17 -41q0 -23 17 -39.5t40 -16.5q24 0 40 16.5t16 39.5zM10 -137h76l54 202h-76z" />
    <glyph glyph-name="less" unicode="&#x3c;" horiz-adv-x="275" 
d="M10 349l190 -190l65 64l-126 126l126 126l-65 64z" />
    <glyph glyph-name="equal" unicode="=" 
d="M564 383h-517v100h517v-100zM564 178h-517v100h517v-100z" />
    <glyph glyph-name="greater" unicode="&#x3e;" horiz-adv-x="275" 
d="M265 350l-191 190l-64 -64l126 -126l-126 -126l64 -65z" />
    <glyph glyph-name="question" unicode="?" horiz-adv-x="524" 
d="M504 472q0 -104 -75 -179q-52 -53 -129 -69v-95h-100v203q19 -9 51 -9q61 0 105 43.5t44 105.5t-44 105.5t-105 43.5q-42 0 -77 -21.5t-54 -56.5l-100 32q18 42 52 76q76 74 179 74q104 0 178 -74q75 -75 75 -179zM307 22q0 24 -16 41t-40 17q-23 0 -40 -17t-17 -41
q0 -23 17 -39.5t40 -16.5q24 0 40 16.5t16 39.5z" />
    <glyph glyph-name="at" unicode="@" horiz-adv-x="607" 
d="M249 1v520h96v-416h135v499h-354v-604h-96v701h547v-700h-328z" />
    <glyph glyph-name="A" unicode="A" horiz-adv-x="629" 
d="M181 0h-102v700h461v-700h-103v298h-256v-298zM181 597v-196h256v196h-256z" />
    <glyph glyph-name="B" unicode="B" horiz-adv-x="686" 
d="M646 2h-596v698h399v-275h196v-7h1v-416zM346 425v172h-193v-172h193zM153 105h390v218h-390v-218z" />
    <glyph glyph-name="C" unicode="C" horiz-adv-x="828" 
d="M795 253q-33 -120 -133 -197.5t-228 -77.5q-154 0 -263.5 109t-109.5 264t109.5 264t263.5 109q130 0 231 -79.5t132 -202.5h-110q-21 56 -63 99q-80 78 -190 78q-111 0 -189 -78q-79 -79 -79 -190t79 -190q78 -78 189 -78q110 0 190 78q40 40 60 92h111z" />
    <glyph glyph-name="D" unicode="D" horiz-adv-x="645" 
d="M585 488q29 -67 29 -138t-29 -138q-29 -63 -80 -111q-109 -101 -260 -101h-166v700h166q151 0 260 -101q52 -49 80 -111zM245 105q109 0 186.5 72t77.5 173q0 102 -77 173.5t-187 71.5h-63v-490h63z" />
    <glyph glyph-name="E" unicode="E" horiz-adv-x="840" 
d="M778 203q-43 -101 -136 -163.5t-207 -62.5q-155 0 -264.5 109.5t-109.5 264.5t109.5 264.5t264.5 109.5t264.5 -109.5t109.5 -264.5q0 -13 -2 -35h-638q11 -90 76 -155q79 -79 190 -79t190 79q25 27 40 51zM435 620q-111 0 -190 -79q-51 -51 -70 -122h520q-19 71 -70 122
q-79 79 -190 79z" />
    <glyph glyph-name="F" unicode="F" horiz-adv-x="629" 
d="M181 597v-196l359 1v-103l-359 -1v-298h-102v700h461v-103h-359z" />
    <glyph glyph-name="G" unicode="G" horiz-adv-x="922" 
d="M713 291v-291h-634v700h531v-103h-429v-494h429v188h-120v103h343v-103h-120z" />
    <glyph glyph-name="H" unicode="H" horiz-adv-x="727" 
d="M158 322v-322h-103v700h103v-275h411v275h103v-700h-103v322h-411z" />
    <glyph glyph-name="I" unicode="I" horiz-adv-x="323" 
d="M212 597v-499h91v-98h-283v98h92v499h-92v103h283v-103h-91z" />
    <glyph glyph-name="J" unicode="J" horiz-adv-x="472" 
d="M383 700v-700h-343v98h238v602h105z" />
    <glyph glyph-name="K" unicode="K" horiz-adv-x="761" 
d="M711 709v-117l-528 -241l528 -240v-118l-548 248v-241h-103v700h103v-240z" />
    <glyph glyph-name="L" unicode="L" horiz-adv-x="462" 
d="M184 98h238v-98h-343v700h105v-602z" />
    <glyph glyph-name="M" unicode="M" horiz-adv-x="824" 
d="M296 0l-70 608h-60v-608h-106v700h263l65 -604h58l65 604h263v-700h-110l2 606h-59l-72 -606h-239z" />
    <glyph glyph-name="N" unicode="N" horiz-adv-x="650" 
d="M311 0l-66 606h-75v-606h-110v700h279l69 -607h76l-1 607h107v-700h-279z" />
    <glyph glyph-name="O" unicode="O" horiz-adv-x="840" 
d="M809 351q0 -155 -109.5 -264.5t-264.5 -109.5t-264.5 109.5t-109.5 264.5t109.5 264.5t264.5 109.5t264.5 -109.5t109.5 -264.5zM166 351q0 -112 79 -189q79 -79 190 -79t190 79q78 76 78 189q0 114 -78 190q-79 79 -190 79t-190 -79q-79 -77 -79 -190z" />
    <glyph glyph-name="P" unicode="P" horiz-adv-x="569" 
d="M253 700q108 0 181 -75q75 -73 75 -181q0 -103 -75 -180q-71 -74 -181 -74h-88v-188h-105v698h193zM253 295q63 0 107.5 43.5t44.5 105.5t-45 107t-107 45h-88v-301h88z" />
    <glyph glyph-name="Q" unicode="Q" horiz-adv-x="840" 
d="M809 351q0 -155 -110 -265l63 -91l-84 -58l-61 88q-86 -48 -182 -48q-155 0 -264.5 109.5t-109.5 264.5t109.5 264.5t264.5 109.5t264.5 -109.5t109.5 -264.5zM435 83q66 0 122 29l-57 83l84 58l53 -78q66 73 66 176q0 114 -78 190q-79 79 -190 79t-190 -79
q-79 -77 -79 -190q0 -112 79 -189q79 -79 190 -79z" />
    <glyph glyph-name="R" unicode="R" horiz-adv-x="594" 
d="M184 0h-105v700h193q101 0 181 -75q75 -72 75 -180q0 -107 -75 -182q-35 -35 -87 -56l168 -207h-136l-152 189h-62v-189zM184 595v-301h88q62 0 107 44.5t45 106.5q0 63 -44.5 106.5t-107.5 43.5h-88z" />
    <glyph glyph-name="S" unicode="S" horiz-adv-x="670" 
d="M507 311v-209h-447v-102h550v413h-448v185h448v102h-550v-389h447z" />
    <glyph glyph-name="T" unicode="T" horiz-adv-x="570" 
d="M532 597h-182v-597h-102v597h-182v103h466v-103z" />
    <glyph glyph-name="U" unicode="U" horiz-adv-x="628" 
d="M436 700h103v-700h-460v700h102v-597h255v597z" />
    <glyph glyph-name="V" unicode="V" horiz-adv-x="550" 
d="M402 700h103l-90 -700h-270l-100 700h102l100 -597h65z" />
    <glyph glyph-name="W" unicode="W" horiz-adv-x="824" 
d="M538 700l70 -608h60v608h106v-700h-263l-65 604h-58l-65 -604h-263v700h110l-2 -606h59l72 606h239z" />
    <glyph glyph-name="X" unicode="X" horiz-adv-x="664" 
d="M473 248h-283v-248h-103v350h134l-161 350h111l161 -350l161 350h111l-162 -350h134v-350h-103v248z" />
    <glyph glyph-name="Y" unicode="Y" horiz-adv-x="581" 
d="M60 248v452h103v-350h265v350h103v-452h-184v-248h-103v248h-184z" />
    <glyph glyph-name="Z" unicode="Z" horiz-adv-x="859" 
d="M145 160v-56h624v-104h-729v231l625 317v48h-625v104h729l1 -223z" />
    <glyph glyph-name="bracketleft" unicode="[" horiz-adv-x="222" 
d="M10 -102h202v100h-102v702h102v100h-202v-902z" />
    <glyph glyph-name="backslash" unicode="\" horiz-adv-x="425" 
d="M280 -78h105l-240 878h-105z" />
    <glyph glyph-name="bracketright" unicode="]" horiz-adv-x="223" 
d="M213 -102h-203v100h103v702h-103v100h203v-902z" />
    <glyph glyph-name="asciicircum" unicode="^" 
 />
    <glyph glyph-name="underscore" unicode="_" horiz-adv-x="537" 
d="M527 -1h-517v100h517v-100z" />
    <glyph glyph-name="grave" unicode="`" 
 />
    <glyph glyph-name="a" unicode="a" horiz-adv-x="629" 
d="M181 0h-102v700h461v-700h-103v298h-256v-298zM181 597v-196h256v196h-256z" />
    <glyph glyph-name="b" unicode="b" horiz-adv-x="686" 
d="M646 2h-596v698h399v-275h196v-7h1v-416zM346 425v172h-193v-172h193zM153 105h390v218h-390v-218z" />
    <glyph glyph-name="c" unicode="c" horiz-adv-x="828" 
d="M795 253q-33 -120 -133 -197.5t-228 -77.5q-154 0 -263.5 109t-109.5 264t109.5 264t263.5 109q130 0 231 -79.5t132 -202.5h-110q-21 56 -63 99q-80 78 -190 78q-111 0 -189 -78q-79 -79 -79 -190t79 -190q78 -78 189 -78q110 0 190 78q40 40 60 92h111z" />
    <glyph glyph-name="d" unicode="d" horiz-adv-x="645" 
d="M585 488q29 -67 29 -138t-29 -138q-29 -63 -80 -111q-109 -101 -260 -101h-166v700h166q151 0 260 -101q52 -49 80 -111zM245 105q109 0 186.5 72t77.5 173q0 102 -77 173.5t-187 71.5h-63v-490h63z" />
    <glyph glyph-name="e" unicode="e" horiz-adv-x="840" 
d="M778 203q-43 -101 -136 -163.5t-207 -62.5q-155 0 -264.5 109.5t-109.5 264.5t109.5 264.5t264.5 109.5t264.5 -109.5t109.5 -264.5q0 -13 -2 -35h-638q11 -90 76 -155q79 -79 190 -79t190 79q25 27 40 51zM435 620q-111 0 -190 -79q-51 -51 -70 -122h520q-19 71 -70 122
q-79 79 -190 79z" />
    <glyph glyph-name="f" unicode="f" horiz-adv-x="629" 
d="M181 597v-196l359 1v-103l-359 -1v-298h-102v700h461v-103h-359z" />
    <glyph glyph-name="g" unicode="g" horiz-adv-x="922" 
d="M713 298v-298h-634v700h531v-103h-429v-494h429v195h-120v103h343v-103h-120z" />
    <glyph glyph-name="h" unicode="h" horiz-adv-x="727" 
d="M158 322v-322h-103v700h103v-275h411v275h103v-700h-103v322h-411z" />
    <glyph glyph-name="i" unicode="i" horiz-adv-x="323" 
d="M212 597v-499h91v-98h-283v98h92v499h-92v103h283v-103h-91z" />
    <glyph glyph-name="j" unicode="j" horiz-adv-x="472" 
d="M383 700v-700h-343v98h238v602h105z" />
    <glyph glyph-name="k" unicode="k" horiz-adv-x="761" 
d="M711 709v-117l-528 -241l528 -240v-118l-548 248v-241h-103v700h103v-240z" />
    <glyph glyph-name="l" unicode="l" horiz-adv-x="462" 
d="M184 98h238v-98h-343v700h105v-602z" />
    <glyph glyph-name="m" unicode="m" horiz-adv-x="824" 
d="M296 0l-70 608h-60v-608h-106v700h263l65 -604h58l65 604h263v-700h-110l2 606h-59l-72 -606h-239z" />
    <glyph glyph-name="n" unicode="n" horiz-adv-x="650" 
d="M311 0l-66 606h-75v-606h-110v700h279l69 -607h76l-1 607h107v-700h-279z" />
    <glyph glyph-name="o" unicode="o" horiz-adv-x="840" 
d="M809 351q0 -155 -109.5 -264.5t-264.5 -109.5t-264.5 109.5t-109.5 264.5t109.5 264.5t264.5 109.5t264.5 -109.5t109.5 -264.5zM166 351q0 -112 79 -189q79 -79 190 -79t190 79q78 76 78 189q0 114 -78 190q-79 79 -190 79t-190 -79q-79 -77 -79 -190z" />
    <glyph glyph-name="p" unicode="p" horiz-adv-x="569" 
d="M253 700q108 0 181 -75q75 -73 75 -181q0 -103 -75 -180q-71 -74 -181 -74h-88v-188h-105v698h193zM253 295q63 0 107.5 43.5t44.5 105.5t-45 107t-107 45h-88v-301h88z" />
    <glyph glyph-name="q" unicode="q" horiz-adv-x="840" 
d="M809 351q0 -155 -110 -265l63 -91l-84 -58l-61 88q-86 -48 -182 -48q-155 0 -264.5 109.5t-109.5 264.5t109.5 264.5t264.5 109.5t264.5 -109.5t109.5 -264.5zM435 83q66 0 122 29l-57 83l84 58l53 -78q66 73 66 176q0 114 -78 190q-79 79 -190 79t-190 -79
q-79 -77 -79 -190q0 -112 79 -189q79 -79 190 -79z" />
    <glyph glyph-name="r" unicode="r" horiz-adv-x="594" 
d="M184 0h-105v700h193q101 0 181 -75q75 -72 75 -180q0 -107 -75 -182q-35 -35 -87 -56l168 -207h-136l-152 189h-62v-189zM184 595v-301h88q62 0 107 44.5t45 106.5q0 63 -44.5 106.5t-107.5 43.5h-88z" />
    <glyph glyph-name="s" unicode="s" horiz-adv-x="670" 
d="M507 311v-209h-447v-102h550v413h-448v185h448v102h-550v-389h447z" />
    <glyph glyph-name="t" unicode="t" horiz-adv-x="580" 
d="M532 597h-182v-597h-102v597h-182v103h466v-103z" />
    <glyph glyph-name="u" unicode="u" horiz-adv-x="618" 
d="M436 700h103v-700h-460v700h102v-597h255v597z" />
    <glyph glyph-name="v" unicode="v" horiz-adv-x="550" 
d="M402 700h103l-90 -700h-270l-100 700h102l100 -597h65z" />
    <glyph glyph-name="w" unicode="w" horiz-adv-x="824" 
d="M538 700l70 -608h60v608h106v-700h-263l-65 604h-58l-65 -604h-263v700h110l-2 -606h59l72 606h239z" />
    <glyph glyph-name="x" unicode="x" horiz-adv-x="664" 
d="M473 248h-283v-248h-103v350h134l-161 350h111l161 -350l161 350h111l-162 -350h134v-350h-103v248z" />
    <glyph glyph-name="y" unicode="y" horiz-adv-x="581" 
d="M60 248v452h103v-350h265v350h103v-452h-184v-248h-103v248h-184z" />
    <glyph glyph-name="z" unicode="z" horiz-adv-x="859" 
d="M145 160v-56h624v-104h-729v231l625 317v48h-625v104h729l1 -223z" />
    <glyph glyph-name="braceleft" unicode="{" 
 />
    <glyph glyph-name="bar" unicode="|" horiz-adv-x="222" 
d="M161 800v-878h-100v878h100z" />
    <glyph glyph-name="braceright" unicode="}" 
 />
    <glyph glyph-name="asciitilde" unicode="~" 
 />
    <glyph glyph-name="exclamdown" unicode="&#xa1;" 
 />
    <glyph glyph-name="cent" unicode="&#xa2;" 
 />
    <glyph glyph-name="sterling" unicode="&#xa3;" 
 />
    <glyph glyph-name="currency" unicode="&#xa4;" 
 />
    <glyph glyph-name="yen" unicode="&#xa5;" 
 />
    <glyph glyph-name="brokenbar" unicode="&#xa6;" 
 />
    <glyph glyph-name="section" unicode="&#xa7;" 
 />
    <glyph glyph-name="dieresis" unicode="&#xa8;" 
 />
    <glyph glyph-name="copyright" unicode="&#xa9;" 
 />
    <glyph glyph-name="guillemotleft" unicode="&#xab;" horiz-adv-x="497" 
d="M228 346l197 -184l62 67l-131 121l122 131l-67 62zM10 338l197 -183l62 66l-130 122l122 130l-67 62z" />
    <glyph glyph-name="logicalnot" unicode="&#xac;" 
 />
    <glyph glyph-name="registered" unicode="&#xae;" 
 />
    <glyph glyph-name="macron" unicode="&#xaf;" 
 />
    <glyph glyph-name="degree" unicode="&#xb0;" 
 />
    <glyph glyph-name="plusminus" unicode="&#xb1;" 
 />
    <glyph glyph-name="acute" unicode="&#xb4;" 
 />
    <glyph glyph-name="paragraph" unicode="&#xb6;" 
 />
    <glyph glyph-name="periodcentered" unicode="&#xb7;" horiz-adv-x="133" 
d="M123 22q0 24 -16 41t-40 17q-23 0 -40 -17t-17 -41q0 -23 17 -39.5t40 -16.5q24 0 40 16.5t16 39.5z" />
    <glyph glyph-name="cedilla" unicode="&#xb8;" 
 />
    <glyph glyph-name="guillemotright" unicode="&#xbb;" horiz-adv-x="493" 
d="M265 349l-190 190l-65 -64l126 -126l-126 -126l65 -64zM483 349l-191 190l-64 -64l126 -126l-126 -126l64 -64z" />
    <glyph glyph-name="questiondown" unicode="&#xbf;" 
 />
    <glyph glyph-name="multiply" unicode="&#xd7;" horiz-adv-x="476" 
d="M309 350l147 -147l-71 -70l-147 147l-148 -148l-70 71l148 148l-148 147l70 71l148 -148l147 147l71 -71z" />
    <glyph glyph-name="divide" unicode="&#xf7;" 
 />
    <glyph glyph-name="circumflex" unicode="&#x2c6;" 
 />
    <glyph glyph-name="caron" unicode="&#x2c7;" 
 />
    <glyph glyph-name="breve" unicode="&#x2d8;" 
 />
    <glyph glyph-name="dotaccent" unicode="&#x2d9;" 
 />
    <glyph glyph-name="ring" unicode="&#x2da;" 
 />
    <glyph glyph-name="ogonek" unicode="&#x2db;" 
 />
    <glyph glyph-name="tilde" unicode="&#x2dc;" 
 />
    <glyph glyph-name="hungarumlaut" unicode="&#x2dd;" 
 />
    <glyph glyph-name="uni0401" unicode="&#x401;" horiz-adv-x="840" 
d="M200 859q8 -29 -9.5 -52t-47.5 -23h-3q-20 0 -36 11.5t-21 30.5q-8 29 9.5 52t47.5 23h3q20 0 36 -11.5t21 -30.5zM437 901q29 0 46.5 -23.5t9.5 -51.5q-5 -19 -20.5 -30.5t-35.5 -11.5h-4q-29 0 -46.5 23.5t-9.5 51.5q5 19 20.5 30.5t35.5 11.5h4zM730 901
q30 0 47.5 -23t9.5 -52q-5 -19 -21 -30.5t-36 -11.5h-4q-29 0 -46.5 23.5t-9.5 51.5q5 19 20.5 30.5t35.5 11.5h4zM779 203q-44 -101 -137 -163.5t-207 -62.5q-155 0 -264.5 109.5t-109.5 264.5t110 264.5t264 109.5q156 0 265 -109t109 -265q0 -24 -1 -35h-639
q12 -91 76 -155q79 -79 190 -79q113 0 190 79q23 23 40 51zM435 620q-111 0 -190 -79q-51 -51 -70 -122h520q-17 71 -70 122q-77 79 -190 79z" />
    <glyph glyph-name="uni0410" unicode="&#x410;" horiz-adv-x="629" 
d="M181 0h-102v700h461v-700h-103v298h-256v-298zM181 597v-196h256v196h-256z" />
    <glyph glyph-name="uni0411" unicode="&#x411;" horiz-adv-x="643" 
d="M176 596v-168h407v-428h-510v700h510v-104h-407zM176 325v-221h303v221h-303z" />
    <glyph glyph-name="uni0412" unicode="&#x412;" horiz-adv-x="686" 
d="M646 2h-596v698h399v-275h196v-7h1v-416zM346 425v172h-193v-172h193zM153 105h390v218h-390v-218z" />
    <glyph glyph-name="uni0413" unicode="&#x413;" horiz-adv-x="443" 
d="M60 0v700h343v-92h-238v-608h-105z" />
    <glyph glyph-name="uni0414" unicode="&#x414;" horiz-adv-x="847" 
d="M191 105v595h465v-595h131v-103h-727v103h131zM294 598v-493h260v493h-260z" />
    <glyph glyph-name="uni0415" unicode="&#x415;" horiz-adv-x="840" 
d="M778 203q-43 -101 -136 -163.5t-207 -62.5q-155 0 -264.5 109.5t-109.5 264.5t109.5 264.5t264.5 109.5t264.5 -109.5t109.5 -264.5q0 -13 -2 -35h-638q11 -90 76 -155q79 -79 190 -79t190 79q25 27 40 51zM435 620q-111 0 -190 -79q-51 -51 -70 -122h520q-19 71 -70 122
q-79 79 -190 79z" />
    <glyph glyph-name="uni0416" unicode="&#x416;" horiz-adv-x="891" 
d="M494 248v-248h-103v248h-201v-248h-103v350h134l-161 350h111l161 -350h59v350h103v-350h60l161 350h111l-161 -350h133v-350h-103v248h-201z" />
    <glyph glyph-name="uni0417" unicode="&#x417;" 
d="M425 299h-335v103h335v195h-335v103h438v-700h-438v103h335v196z" />
    <glyph glyph-name="uni0418" unicode="&#x418;" horiz-adv-x="650" 
d="M60 700h107l-1 -607h76l69 607h279v-700h-110v606h-75l-66 -606h-279v700z" />
    <glyph glyph-name="uni0419" unicode="&#x419;" horiz-adv-x="650" 
d="M245 875v-93h151v93h-151zM405 606l-66 -606h-279v700h107l-1 -607h76l69 607h279v-700h-109v606h-76z" />
    <glyph glyph-name="uni041A" unicode="&#x41a;" horiz-adv-x="761" 
d="M711 709v-117l-528 -241l528 -240v-118l-548 248v-241h-103v700h103v-240z" />
    <glyph glyph-name="uni041B" unicode="&#x41b;" horiz-adv-x="586" 
d="M157 0h-112l134 700h347v-700h-103v597h-152z" />
    <glyph glyph-name="uni041C" unicode="&#x41c;" horiz-adv-x="824" 
d="M296 0l-70 608h-60v-608h-106v700h263l65 -604h58l65 604h263v-700h-110l2 606h-59l-72 -606h-239z" />
    <glyph glyph-name="uni041D" unicode="&#x41d;" horiz-adv-x="727" 
d="M158 322v-322h-103v700h103v-275h411v275h103v-700h-103v322h-411z" />
    <glyph glyph-name="uni041E" unicode="&#x41e;" horiz-adv-x="840" 
d="M809 351q0 -155 -109.5 -264.5t-264.5 -109.5t-264.5 109.5t-109.5 264.5t109.5 264.5t264.5 109.5t264.5 -109.5t109.5 -264.5zM166 351q0 -112 79 -189q79 -79 190 -79t190 79q78 76 78 189q0 114 -78 190q-79 79 -190 79t-190 -79q-79 -77 -79 -190z" />
    <glyph glyph-name="uni041F" unicode="&#x41f;" horiz-adv-x="628" 
d="M182 0h-103v700h460v-700h-102v597h-255v-597z" />
    <glyph glyph-name="uni0420" unicode="&#x420;" horiz-adv-x="569" 
d="M253 700q108 0 181 -75q75 -73 75 -181q0 -103 -75 -180q-71 -74 -181 -74h-88v-188h-105v698h193zM253 295q63 0 107.5 43.5t44.5 105.5t-45 107t-107 45h-88v-301h88z" />
    <glyph glyph-name="uni0421" unicode="&#x421;" horiz-adv-x="828" 
d="M795 253q-33 -120 -133 -197.5t-228 -77.5q-154 0 -263.5 109t-109.5 264t109.5 264t263.5 109q130 0 231 -79.5t132 -202.5h-110q-21 56 -63 99q-80 78 -190 78q-111 0 -189 -78q-79 -79 -79 -190t79 -190q78 -78 189 -78q110 0 190 78q40 40 60 92h111z" />
    <glyph glyph-name="uni0422" unicode="&#x422;" horiz-adv-x="570" 
d="M532 597h-182v-597h-102v597h-182v103h466v-103z" />
    <glyph glyph-name="uni0423" unicode="&#x423;" horiz-adv-x="581" 
d="M60 248v452h103v-350h265v350h103v-452h-184v-248h-103v248h-184z" />
    <glyph glyph-name="uni0424" unicode="&#x424;" horiz-adv-x="748" 
d="M60 248v452h628v-452h-262v-248h-103v248h-263zM323 597h-159v-246h159v246zM585 351v246h-159v-246h159z" />
    <glyph glyph-name="uni0425" unicode="&#x425;" horiz-adv-x="664" 
d="M473 248h-283v-248h-103v350h134l-161 350h111l161 -350l161 350h111l-162 -350h134v-350h-103v248z" />
    <glyph glyph-name="uni0426" unicode="&#x426;" horiz-adv-x="636" 
d="M85 700h103v-597h192v597h103v-597h103v-217h-103v114h-398v700z" />
    <glyph glyph-name="uni0427" unicode="&#x427;" horiz-adv-x="560" 
d="M397 700h103v-700h-103v248h-337v452h103v-350h234v350z" />
    <glyph glyph-name="uni0428" unicode="&#x428;" horiz-adv-x="732" 
d="M163 103h151v597h103v-597h152v597h103v-700h-612v700h103v-597z" />
    <glyph glyph-name="uni0429" unicode="&#x429;" horiz-adv-x="850" 
d="M60 700h103v-597h151v597h103v-597h152v597h103v-597h133v-217h-103v114h-642v700z" />
    <glyph glyph-name="uni042A" unicode="&#x42a;" horiz-adv-x="768" 
d="M633 438q75 -77 75 -182q0 -104 -75 -181q-77 -75 -182 -75h-195v597h-196v103h302v-187h89q105 0 182 -75zM451 106q62 0 106.5 44t44.5 106q0 63 -44.5 107t-106.5 44h-89v-301h89z" />
    <glyph glyph-name="uni042B" unicode="&#x42b;" horiz-adv-x="779" 
d="M719 701v-701h-103v701h103zM512 257q0 -106 -76 -182q-75 -75 -181 -75h-195v700h106v-187h89q106 0 181 -75q76 -74 76 -181zM255 106q62 0 106.5 44t44.5 107q0 62 -44.5 106t-106.5 44h-89v-301h89z" />
    <glyph glyph-name="uni042C" unicode="&#x42c;" horiz-adv-x="571" 
d="M511 256q0 -104 -75 -181q-75 -75 -181 -75h-195v700h106v-187h89q106 0 181 -75q75 -77 75 -182zM255 106q62 0 106.5 44t44.5 106t-44.5 106.5t-106.5 44.5h-89v-301h89z" />
    <glyph glyph-name="uni042D" unicode="&#x42d;" horiz-adv-x="827" 
d="M422 724q155 0 264.5 -109t109.5 -264t-109.5 -264t-264.5 -109q-128 0 -228.5 78.5t-132.5 199.5h110q22 -55 62 -95q78 -78 189 -78q110 0 190 78q57 57 73 137h-263v106h263q-16 80 -73 137q-80 78 -190 78q-111 0 -189 -78q-40 -40 -62 -95h-110q32 121 132.5 199.5
t228.5 78.5z" />
    <glyph glyph-name="uni042E" unicode="&#x42e;" horiz-adv-x="1109" 
d="M675 723q155 0 264.5 -109t109.5 -265q0 -155 -109.5 -264.5t-264.5 -109.5q-141 0 -246.5 92.5t-124.5 230.5h-141v-298h-103v700h103v-299h141q19 138 124 230t247 92zM865 159q79 81 79 190t-79 190q-81 79 -190 79q-111 0 -190 -79q-80 -80 -80 -190t80 -190
q79 -79 190 -79q109 0 190 79z" />
    <glyph glyph-name="uni042F" unicode="&#x42f;" horiz-adv-x="585" 
d="M358 189l-152 -189h-136l168 207q-52 21 -87 56q-75 75 -75 182q0 108 75 180q73 75 181 75h193v-700h-105v189h-62zM332 595q-63 0 -107.5 -43.5t-44.5 -106.5q0 -62 45 -106.5t107 -44.5h88v301h-88z" />
    <glyph glyph-name="uni0430" unicode="&#x430;" horiz-adv-x="629" 
d="M181 0h-102v700h461v-700h-103v298h-256v-298zM181 597v-196h256v196h-256z" />
    <glyph glyph-name="uni0431" unicode="&#x431;" horiz-adv-x="633" 
d="M176 596v-168h407v-428h-510v700h510v-104h-407zM176 325v-221h303v221h-303z" />
    <glyph glyph-name="uni0432" unicode="&#x432;" horiz-adv-x="696" 
d="M646 2h-596v698h399v-275h196v-7h1v-416zM346 425v172h-193v-172h193zM153 105h390v218h-390v-218z" />
    <glyph glyph-name="uni0433" unicode="&#x433;" horiz-adv-x="443" 
d="M60 0v700h343v-103h-238v-597h-105z" />
    <glyph glyph-name="uni0434" unicode="&#x434;" horiz-adv-x="847" 
d="M191 105v595h465v-595h131v-103h-727v103h131zM294 598v-493h260v493h-260z" />
    <glyph glyph-name="uni0435" unicode="&#x435;" horiz-adv-x="840" 
d="M778 203q-43 -101 -136 -163.5t-207 -62.5q-155 0 -264.5 109.5t-109.5 264.5t109.5 264.5t264.5 109.5t264.5 -109.5t109.5 -264.5q0 -13 -2 -35h-638q11 -90 76 -155q79 -79 190 -79t190 79q25 27 40 51zM435 620q-111 0 -190 -79q-51 -51 -70 -122h520q-19 71 -70 122
q-79 79 -190 79z" />
    <glyph glyph-name="uni0436" unicode="&#x436;" horiz-adv-x="892" 
d="M494 248v-248h-103v248h-201v-248h-103v350h134l-161 350h111l161 -350h59v350h103v-350h60l161 350h111l-161 -350h133v-350h-103v248h-201z" />
    <glyph glyph-name="uni0437" unicode="&#x437;" 
d="M425 299h-335v103h335v195h-335v103h438v-700h-438v103h335v196z" />
    <glyph glyph-name="uni0438" unicode="&#x438;" horiz-adv-x="650" 
d="M60 700h107l-1 -607h76l69 607h279v-700h-110v606h-75l-66 -606h-279v700z" />
    <glyph glyph-name="uni0439" unicode="&#x439;" horiz-adv-x="650" 
d="M245 875v-93h151v93h-151zM405 606l-66 -606h-279v700h107l-1 -607h76l69 607h279v-700h-109v606h-76z" />
    <glyph glyph-name="uni043A" unicode="&#x43a;" horiz-adv-x="761" 
d="M711 709v-117l-528 -241l528 -240v-118l-548 248v-241h-103v700h103v-240z" />
    <glyph glyph-name="uni043B" unicode="&#x43b;" horiz-adv-x="586" 
d="M157 0h-112l134 700h347v-700h-103v597h-152z" />
    <glyph glyph-name="uni043C" unicode="&#x43c;" horiz-adv-x="824" 
d="M296 0l-70 608h-60v-608h-106v700h263l65 -604h58l65 604h263v-700h-110l2 606h-59l-72 -606h-239z" />
    <glyph glyph-name="uni043D" unicode="&#x43d;" horiz-adv-x="727" 
d="M158 322v-322h-103v700h103v-275h411v275h103v-700h-103v322h-411z" />
    <glyph glyph-name="uni043E" unicode="&#x43e;" horiz-adv-x="840" 
d="M809 351q0 -155 -109.5 -264.5t-264.5 -109.5t-264.5 109.5t-109.5 264.5t109.5 264.5t264.5 109.5t264.5 -109.5t109.5 -264.5zM166 351q0 -112 79 -189q79 -79 190 -79t190 79q78 76 78 189q0 114 -78 190q-79 79 -190 79t-190 -79q-79 -77 -79 -190z" />
    <glyph glyph-name="uni043F" unicode="&#x43f;" horiz-adv-x="628" 
d="M182 0h-103v700h460v-700h-102v597h-255v-597z" />
    <glyph glyph-name="uni0440" unicode="&#x440;" horiz-adv-x="569" 
d="M253 700q108 0 181 -75q75 -73 75 -181q0 -103 -75 -180q-71 -74 -181 -74h-88v-188h-105v698h193zM253 295q63 0 107.5 43.5t44.5 105.5t-45 107t-107 45h-88v-301h88z" />
    <glyph glyph-name="uni0441" unicode="&#x441;" horiz-adv-x="828" 
d="M795 253q-33 -120 -133 -197.5t-228 -77.5q-154 0 -263.5 109t-109.5 264t109.5 264t263.5 109q130 0 231 -79.5t132 -202.5h-110q-21 56 -63 99q-80 78 -190 78q-111 0 -189 -78q-79 -79 -79 -190t79 -190q78 -78 189 -78q110 0 190 78q40 40 60 92h111z" />
    <glyph glyph-name="uni0442" unicode="&#x442;" horiz-adv-x="570" 
d="M532 597h-182v-597h-102v597h-182v103h466v-103z" />
    <glyph glyph-name="uni0443" unicode="&#x443;" horiz-adv-x="581" 
d="M60 248v452h103v-350h265v350h103v-452h-184v-248h-103v248h-184z" />
    <glyph glyph-name="uni0444" unicode="&#x444;" horiz-adv-x="748" 
d="M60 248v452h628v-452h-262v-248h-103v248h-263zM323 597h-159v-246h159v246zM585 351v246h-159v-246h159z" />
    <glyph glyph-name="uni0445" unicode="&#x445;" horiz-adv-x="664" 
d="M473 248h-283v-248h-103v350h134l-161 350h111l161 -350l161 350h111l-162 -350h134v-350h-103v248z" />
    <glyph glyph-name="uni0446" unicode="&#x446;" horiz-adv-x="636" 
d="M85 700h103v-597h192v597h103v-597h103v-217h-103v114h-398v700z" />
    <glyph glyph-name="uni0447" unicode="&#x447;" horiz-adv-x="560" 
d="M397 700h103v-700h-103v248h-337v452h103v-350h234v350z" />
    <glyph glyph-name="uni0448" unicode="&#x448;" horiz-adv-x="732" 
d="M163 103h151v597h103v-597h152v597h103v-700h-612v700h103v-597z" />
    <glyph glyph-name="uni0449" unicode="&#x449;" horiz-adv-x="850" 
d="M60 700h103v-597h151v597h103v-597h152v597h103v-597h133v-217h-103v114h-642v700z" />
    <glyph glyph-name="uni044A" unicode="&#x44a;" horiz-adv-x="768" 
d="M633 438q75 -77 75 -182q0 -104 -75 -181q-77 -75 -182 -75h-195v597h-196v103h302v-187h89q105 0 182 -75zM451 106q62 0 106.5 44t44.5 106q0 63 -44.5 107t-106.5 44h-89v-301h89z" />
    <glyph glyph-name="uni044B" unicode="&#x44b;" horiz-adv-x="779" 
d="M719 701v-701h-103v701h103zM512 257q0 -106 -76 -182q-75 -75 -181 -75h-195v700h106v-187h89q106 0 181 -75q76 -74 76 -181zM255 106q62 0 106.5 44t44.5 107q0 62 -44.5 106t-106.5 44h-89v-301h89z" />
    <glyph glyph-name="uni044C" unicode="&#x44c;" horiz-adv-x="571" 
d="M511 256q0 -104 -75 -181q-75 -75 -181 -75h-195v700h106v-187h89q106 0 181 -75q75 -77 75 -182zM255 106q62 0 106.5 44t44.5 106t-44.5 106.5t-106.5 44.5h-89v-301h89z" />
    <glyph glyph-name="uni044D" unicode="&#x44d;" horiz-adv-x="827" 
d="M422 724q155 0 264.5 -109t109.5 -264t-109.5 -264t-264.5 -109q-128 0 -228.5 78.5t-132.5 199.5h110q22 -55 62 -95q78 -78 189 -78q110 0 190 78q57 57 73 137h-263v106h263q-16 80 -73 137q-80 78 -190 78q-111 0 -189 -78q-40 -40 -62 -95h-110q32 121 132.5 199.5
t228.5 78.5z" />
    <glyph glyph-name="uni044E" unicode="&#x44e;" horiz-adv-x="1109" 
d="M675 723q155 0 264.5 -109t109.5 -265q0 -155 -109.5 -264.5t-264.5 -109.5q-141 0 -246.5 92.5t-124.5 230.5h-141v-298h-103v700h103v-299h141q19 138 124 230t247 92zM865 159q79 81 79 190t-79 190q-81 79 -190 79q-111 0 -190 -79q-80 -80 -80 -190t80 -190
q79 -79 190 -79q109 0 190 79z" />
    <glyph glyph-name="uni044F" unicode="&#x44f;" horiz-adv-x="585" 
d="M358 189l-152 -189h-136l168 207q-52 21 -87 56q-75 75 -75 182q0 108 75 180q73 75 181 75h193v-700h-105v189h-62zM332 595q-63 0 -107.5 -43.5t-44.5 -106.5q0 -62 45 -106.5t107 -44.5h88v301h-88z" />
    <glyph glyph-name="uni0451" unicode="&#x451;" horiz-adv-x="840" 
d="M200 859q8 -29 -9.5 -52t-47.5 -23h-3q-20 0 -36 11.5t-21 30.5q-8 29 9.5 52t47.5 23h3q20 0 36 -11.5t21 -30.5zM437 901q29 0 46.5 -23.5t9.5 -51.5q-5 -19 -20.5 -30.5t-35.5 -11.5h-4q-29 0 -46.5 23.5t-9.5 51.5q5 19 20.5 30.5t35.5 11.5h4zM730 901
q30 0 47.5 -23t9.5 -52q-5 -19 -21 -30.5t-36 -11.5h-4q-29 0 -46.5 23.5t-9.5 51.5q5 19 20.5 30.5t35.5 11.5h4zM779 203q-44 -101 -137 -163.5t-207 -62.5q-155 0 -264.5 109.5t-109.5 264.5t110 264.5t264 109.5q156 0 265 -109t109 -265q0 -24 -1 -35h-639
q12 -91 76 -155q79 -79 190 -79q113 0 190 79q23 23 40 51zM435 620q-111 0 -190 -79q-51 -51 -70 -122h520q-17 71 -70 122q-77 79 -190 79z" />
    <glyph glyph-name="endash" unicode="&#x2013;" horiz-adv-x="537" 
d="M527 300h-517v100h517v-100z" />
    <glyph glyph-name="emdash" unicode="&#x2014;" horiz-adv-x="898" 
d="M888 300h-878v100h878v-100z" />
    <glyph glyph-name="quoteleft" unicode="&#x2018;" horiz-adv-x="150" 
d="M9 498h76l54 202h-76z" />
    <glyph glyph-name="quoteright" unicode="&#x2019;" horiz-adv-x="150" 
d="M9 498h76l54 202h-76z" />
    <glyph glyph-name="quotesinglbase" unicode="&#x201a;" horiz-adv-x="150" 
d="M10 -137h76l54 202h-76z" />
    <glyph glyph-name="quotedblleft" unicode="&#x201c;" horiz-adv-x="348" 
d="M163 470h-100l-43 230h100zM328 470h-100l-43 230h100z" />
    <glyph glyph-name="quotedblright" unicode="&#x201d;" horiz-adv-x="348" 
d="M163 700l-43 -230h-100l43 230h100zM328 700l-43 -230h-100l43 230h100z" />
    <glyph glyph-name="quotedblbase" unicode="&#x201e;" 
 />
    <glyph glyph-name="dagger" unicode="&#x2020;" 
 />
    <glyph glyph-name="daggerdbl" unicode="&#x2021;" 
 />
    <glyph glyph-name="bullet" unicode="&#x2022;" 
 />
    <glyph glyph-name="ellipsis" unicode="&#x2026;" 
 />
    <glyph glyph-name="perthousand" unicode="&#x2030;" 
 />
    <glyph glyph-name="guilsinglleft" unicode="&#x2039;" horiz-adv-x="275" 
d="M10 349l190 -190l65 64l-126 126l126 126l-65 64z" />
    <glyph glyph-name="guilsinglright" unicode="&#x203a;" horiz-adv-x="275" 
d="M265 350l-191 190l-64 -64l126 -126l-126 -126l64 -65z" />
    <glyph glyph-name="fraction" unicode="&#x2044;" 
 />
    <glyph glyph-name="Euro" unicode="&#x20ac;" 
 />
    <glyph glyph-name="trademark" unicode="&#x2122;" horiz-adv-x="1200" 
 />
    <glyph glyph-name="arrowleft" unicode="&#x2190;" 
 />
    <glyph glyph-name="arrowup" unicode="&#x2191;" 
 />
    <glyph glyph-name="arrowright" unicode="&#x2192;" 
 />
    <glyph glyph-name="arrowdown" unicode="&#x2193;" 
 />
    <glyph glyph-name="arrowboth" unicode="&#x2194;" 
 />
    <glyph glyph-name="arrowupdn" unicode="&#x2195;" 
 />
    <glyph glyph-name="uni2196" unicode="&#x2196;" 
 />
    <glyph glyph-name="uni2197" unicode="&#x2197;" 
 />
    <glyph glyph-name="uni2198" unicode="&#x2198;" 
 />
    <glyph glyph-name="uni2199" unicode="&#x2199;" 
 />
    <glyph glyph-name="partialdiff" unicode="&#x2202;" 
 />
    <glyph glyph-name="emptyset" unicode="&#x2205;" 
 />
    <glyph glyph-name="product" unicode="&#x220f;" 
 />
    <glyph glyph-name="summation" unicode="&#x2211;" 
 />
    <glyph glyph-name="minus" unicode="&#x2212;" 
d="M562 300h-517v100h517v-100z" />
    <glyph glyph-name="radical" unicode="&#x221a;" 
 />
    <glyph glyph-name="infinity" unicode="&#x221e;" 
 />
    <glyph glyph-name="integral" unicode="&#x222b;" 
 />
    <glyph glyph-name="approxequal" unicode="&#x2248;" 
 />
    <glyph glyph-name="notequal" unicode="&#x2260;" 
 />
    <glyph glyph-name="lessequal" unicode="&#x2264;" 
 />
    <glyph glyph-name="greaterequal" unicode="&#x2265;" 
 />
    <glyph glyph-name="lozenge" unicode="&#x25ca;" 
 />
    <glyph glyph-name="newGlyph" 
 />
    <glyph glyph-name="newGlyph.001" 
 />
    </font>
</defs>
</svg>
